# xmcd
#
# Track frame offsets:
#	150
#	29337
#	56065
#	80009
#	100668
#	123614
#	146718
#	167967
#	195249
#	216044
#	238959
#	261729
#
# Disc length: 3794 seconds
#
# Revision: 0
# Processed by: cddbd v1.5.2PL0 Copyright (c) Steve Scherf et al.
# Submitted via: EasyCDDAExtractor 2010.6.0.0
#
DISCID=b70ed00c
DTITLE=Various Artist - Super Soul Club Hits
DYEAR=2000
DGENRE=Club
TTITLE0=I Hear You Knocking
TTITLE1=Hit It and Quit It
TTITLE2=Back Up lover
TTITLE3=Hole In The Wall
TTITLE4=Big Head Hundreds
TTITLE5=I Been Partying All Night
TTITLE6=Mr. Mailman
TTITLE7=Sho Wasn't Me
TTITLE8=Shon't Don't Don't
TTITLE9=That's Still My Love
TTITLE10=Hole In The Wall (Back Door Mix)
TTITLE11=That's Still My Love (Mellow Mix)
EXTD=
EXTT0=
EXTT1=
EXTT2=
EXTT3=
EXTT4=
EXTT5=
EXTT6=
EXTT7=
EXTT8=
EXTT9=
EXTT10=
EXTT11=
PLAYORDER=
